{"title":"How to Train Your Dragon 2 2014 720p BRRip x264 MP4 AAC-CC","uid":11244295,"size":2330246797,"categoryP":"video","categoryS":"hd___movies","magnet":"?xt=urn:btih:9cee372a2eb4e68d3db8798ab9cc03f478028ebe&amp;dn=How+to+Train+Your+Dragon+2+2014+720p+BRRip+x264+MP4+AAC-CC&amp;tr=udp%3A%2F%2Ftracker.openbittorrent.com%3A80&amp;tr=udp%3A%2F%2Fopen.demonii.com%3A1337&amp;tr=udp%3A%2F%2Ftracker.coppersurfer.tk%3A6969&amp;tr=udp%3A%2F%2Fexodus.desync.com%3A6969","seeders":14,"leechers":2,"uploader":"Caveman44","files":-1,"time":1413713488,"description":" &lt;a href=&quot;http://www.imdb.com/title/tt1646971&quot; rel=&quot;nofollow&quot; target=&quot;_NEW&quot;&gt;http://www.imdb.com/title/tt1646971&lt;/a&gt;\n\nSource: How.to.Train.Your.Dragon.2.2014.720p.BluRay.x264.DTS-RARBG Thanks!\n\nSubs: Arabic, Brazilian, Dutch, English HI, Farsi Persian, Finnish, Indonesian, Malay, Portuguese, Spanish.\n\nSample and Screens included.\n\nGeneral\nComplete name                            : How to Train Your Dragon 2 2014 720p BRRip x264 MP4 AAC-CC.mp4\nFormat                                   : MPEG-4\nFormat profile                           : Base Media\nCodec ID                                 : isom\nFile size                                : 2.14 GiB\nDuration                                 : 1h 41mn\nOverall bit rate mode                    : Variable\nOverall bit rate                         : 3 011 Kbps\nEncoded date                             : UTC 2014-10-18 06:23:37\nTagged date                              : UTC 2014-10-18 06:23:37\nWriting application                      : Yamb 2.1.0.0 \n\nVideo\nID                                       : 1\nFormat                                   : AVC\nFormat/Info                              : Advanced Video Codec\nFormat profile                           : High@L4.1\nFormat settings, CABAC                   : Yes\nFormat settings, ReFrames                : 5 frames\nCodec ID                                 : avc1\nCodec ID/Info                            : Advanced Video Coding\nDuration                                 : 1h 41mn\nSource duration                          : 1h 41mn\nBit rate                                 : 2 643 Kbps\nMaximum bit rate                         : 17.3 Mbps\nWidth                                    : 1 280 pixels\nHeight                                   : 544 pixels\nDisplay aspect ratio                     : 2.35:1\nFrame rate mode                          : Variable\nFrame rate                               : 23.976 fps\nMinimum frame rate                       : 15.873 fps\nMaximum frame rate                       : 24.390 fps\nColor space                              : YUV\nChroma subsampling                       : 4:2:0\nBit depth                                : 8 bits\nScan type                                : Progressive\nBits/(Pixel*Frame)                       : 0.158\nStream size                              : 1.87 GiB (87%)\nWriting library                          : x264 core 112\nEncoding settings                        : cabac=1 / ref=5 / deblock=1:0:0 / analyse=0x3:0x113 / me=hex / subme=7 / psy=1 / psy_rd=1.00:0.00 / mixed_ref=1 / me_range=16 / chroma_me=1 / trellis=1 / 8x8dct=1 / cqm=0 / deadzone=21,11 / fast_pskip=1 / chroma_qp_offset=-2 / threads=3 / sliced_threads=0 / nr=0 / decimate=1 / interlaced=0 / constrained_intra=0 / bframes=5 / b_pyramid=2 / b_adapt=2 / b_bias=0 / direct=1 / weightb=1 / open_gop=0 / weightp=2 / keyint=240 / keyint_min=23 / scenecut=40 / intra_refresh=0 / rc_lookahead=50 / rc=abr / mbtree=1 / bitrate=2643 / ratetol=1.0 / qcomp=0.60 / qpmin=3 / qpmax=51 / qpstep=4 / ip_ratio=1.40 / aq=1:1.00\nEncoded date                             : UTC 2014-10-18 20:29:21\nTagged date                              : UTC 2014-10-18 06:26:46\nColor primaries                          : BT.709\nTransfer characteristics                 : BT.709\nMatrix coefficients                      : BT.709\n\nAudio\nID                                       : 2\nFormat                                   : AAC\nFormat/Info                              : Advanced Audio Codec\nFormat profile                           : LC\nCodec ID                                 : 40\nDuration                                 : 1h 41mn\nBit rate mode                            : Variable\nBit rate                                 : 384 Kbps\nMaximum bit rate                         : 658 Kbps\nChannel(s)                               : 6 channels\nChannel positions                        : Front: L C R, Side: L R, LFE\nSampling rate                            : 48.0 KHz\nCompression mode                         : Lossy\nDelay relative to video                  : 84ms\nStream size                              : 279 MiB (13%)\nLanguage                                 : English\nEncoded date                             : UTC 2014-10-18 06:26:08\nTagged date                              : UTC 2014-10-18 06:26:46\n\nEnjoy","torrent":{"xt":"urn:btih:9cee372a2eb4e68d3db8798ab9cc03f478028ebe","amp;dn":"How+to+Train+Your+Dragon+2+2014+720p+BRRip+x264+MP4+AAC-CC","amp;tr":["udp%3A%2F%2Ftracker.openbittorrent.com%3A80","udp%3A%2F%2Fopen.demonii.com%3A1337","udp%3A%2F%2Ftracker.coppersurfer.tk%3A6969","udp%3A%2F%2Fexodus.desync.com%3A6969"],"infoHash":"9cee372a2eb4e68d3db8798ab9cc03f478028ebe","infoHashBuffer":{"type":"Buffer","data":[156,238,55,42,46,180,230,141,61,184,121,138,185,204,3,244,120,2,142,190]},"announce":[],"urlList":[]}}